<svg id="line" height="512" viewBox="0 0 64 64" width="512" xmlns="http://www.w3.org/2000/svg"><path d="m20 15h40a1 1 0 0 0 0-2h-40a1 1 0 0 0 0 2z" fill="#c4a2fc"/><path d="m60 61h-4c-.42-9.67-6.16-19.52-14-23.69l-.12-.06.12-.07a26.63 26.63 0 0 0 13.8-20.18h-31.62a25.74 25.74 0 0 0 13.35 20.18l.12.06-.12.07c-7.7 4.1-13.14 13.74-13.53 23.69h-4a1 1 0 0 0 0 2h40a1 1 0 0 0 0-2zm-21-19.76a1 1 0 0 1 2 0v7a1 1 0 1 1 -2 0zm1 10a1 1 0 1 1 -1 1 1 1 0 0 1 1-1zm-11.9 9.76c2.64-1.69 7.11-4 11.9-4s9.26 2.31 11.9 4z" fill="#c4a2fc"/><g fill="#151a6a"><path d="m37.66 46.88a22.79 22.79 0 0 1 -9.66 2.12 23.11 23.11 0 0 1 -16.59-39.09v3.33a1 1 0 0 0 2 0v-5.65a1 1 0 0 0 -1-1h-5.65a1 1 0 0 0 0 2h3.15a25.11 25.11 0 0 0 18.09 42.41 24.78 24.78 0 0 0 10.5-2.31 1 1 0 1 0 -.84-1.81z"/><path d="m28 1a24.79 24.79 0 0 0 -10.92 2.5 1 1 0 0 0 .92 1.8 22.73 22.73 0 0 1 10-2.3 23 23 0 0 1 14.68 40.7 1 1 0 0 0 1.32 1.54 25 25 0 0 0 -16-44.24z"/><path d="m27 26a1 1 0 0 0 1 1h8a1 1 0 0 0 0-2h-7v-11a1 1 0 0 0 -2 0z"/><path d="m28 10a1 1 0 0 0 1-1v-3a1 1 0 0 0 -2 0v3a1 1 0 0 0 1 1z"/><path d="m27 46a1 1 0 0 0 2 0v-3a1 1 0 0 0 -2 0z"/><path d="m48 27a1 1 0 0 0 0-2h-3a1 1 0 0 0 0 2z"/><path d="m8 25a1 1 0 0 0 0 2h3a1 1 0 0 0 0-2z"/></g></svg>