<?xml version="1.0" encoding="iso-8859-1"?>
<!-- Generator: Adobe Illustrator 19.0.0, SVG Export Plug-In . SVG Version: 6.00 Build 0)  -->
<svg version="1.1" id="Capa_1" xmlns="http://www.w3.org/2000/svg" xmlns:xlink="http://www.w3.org/1999/xlink" x="0px" y="0px"
	 viewBox="0 0 416 416" style="enable-background:new 0 0 416 416;" xml:space="preserve">
<path style="fill:#FFDC69;" d="M320,8H120c-17.672,0-32,14.328-32,32v8H40C22.328,48,8,62.328,8,80v40c0,17.672,14.328,32,32,32h48
	v56v104v32c0,17.68,14.32,32,32,32h24h24c0,17.672,14.328,32,32,32h96c17.672,0,32-14.328,32-32h24h24c17.672,0,32-14.328,32-32V96
	v-8L328,8H320z M280,80c0-17.672-14.328-32-32-32C265.68,48,280,62.32,280,80z M280,120c0,17.68-14.32,32-32,32
	C265.672,152,280,137.672,280,120z"/>
<path style="fill:#FFB855;" d="M328,8h-8v56c0,17.672,14.328,32,32,32h56v-8L328,8z"/>
<path style="fill:#FF8C5A;" d="M280,80v40c0,17.672-14.328,32-32,32H40c-17.672,0-32-14.328-32-32V80c0-17.672,14.328-32,32-32h208
	C265.672,48,280,62.328,280,80z"/>
<path style="fill:#FEEC9F;" d="M296,408h-96c-17.672,0-32-14.328-32-32v-80c0-17.672,14.328-32,32-32h96c17.672,0,32,14.328,32,32
	v80C328,393.672,313.672,408,296,408z"/>
<polygon style="fill:#FFFFFF;" points="248,368 224,368 224,344 264,304 288,328 "/>
<path d="M97.792,99.816c0-19.144-11.328-26.808-27.816-26.808H53.992v54.12h16.824C86.464,127.128,97.792,118.96,97.792,99.816z
	 M68.312,115.632V84.496h0.832c7.832,0,13.984,2.656,13.984,15.312s-6.16,15.824-13.984,15.824H68.312z"/>
<path d="M130.216,128.128c14.984,0,25.144-10.504,25.144-28.312c0-17.736-10.16-27.808-25.144-27.808S105.072,82,105.072,99.816
	S115.232,128.128,130.216,128.128z M130.216,84.328c6.496,0,10.496,5.664,10.496,15.488c0,9.832-4,15.984-10.496,15.984
	s-10.488-6.16-10.488-15.984C119.736,89.992,123.728,84.328,130.216,84.328z"/>
<path d="M188.8,128.128c6.656,0,12.896-2.672,17.48-8l-7.824-8.656c-2.336,2.504-5.328,4.328-9.496,4.328
	c-6.992,0-11.656-5.656-11.656-15.816c0-9.832,5.496-15.656,11.992-15.656c3.496,0,5.832,1.328,8.496,3.664l7.824-8.824
	C201.784,75.336,195.96,72,189.128,72c-13.984,0-26.472,10.32-26.472,28.48C162.656,118.96,174.64,128.128,188.8,128.128z"/>
<path d="M223.064,127.128l4-9.656c1.168-2.832,2.328-5.672,3.496-9h0.336c1.328,3.328,2.496,6.168,3.832,9l4.328,9.656h15.984
	l-14.648-27.144l13.816-26.976H238.88l-3.168,8.824c-1,2.504-2.168,5.504-3.328,9h-0.336c-1.504-3.504-2.664-6.504-3.832-9
	l-3.664-8.824h-15.984l13.824,26.304l-14.656,27.816H223.064z"/>
<rect x="32" y="112" width="16" height="16"/>
<path d="M333.656,2.344C332.16,0.84,330.128,0,328,0h-8H120C97.944,0,80,17.944,80,40H40C17.944,40,0,57.944,0,80v40
	c0,22.056,17.944,40,40,40h40v184c0,22.056,17.944,40,40,40h24c4.424,0,8-3.576,8-8s-3.576-8-8-8h-24c-13.232,0-24-10.768-24-24V160
	h152c22.056,0,40-17.944,40-40V80c0-22.056-17.944-40-40-40H96c0-13.232,10.768-24,24-24h192v48c0,22.056,17.944,40,40,40h48v240
	c0,13.232-10.768,24-24,24h-24c-4.424,0-8,3.576-8,8s3.576,8,8,8h24c22.056,0,40-17.944,40-40V96v-8c0-2.128-0.84-4.16-2.344-5.656
	L333.656,2.344z M248,56c13.232,0,24,10.768,24,24v40c0,13.232-10.768,24-24,24H40c-13.232,0-24-10.768-24-24V80
	c0-13.232,10.768-24,24-24H248z M352,88c-13.232,0-24-10.768-24-24V19.312L396.688,88H352z"/>
<path d="M296,416c22.056,0,40-17.944,40-40v-80c0-22.056-17.944-40-40-40h-96c-22.056,0-40,17.944-40,40v80
	c0,22.056,17.944,40,40,40H296z M176,376v-80c0-13.232,10.768-24,24-24h96c13.232,0,24,10.768,24,24v80c0,13.232-10.768,24-24,24
	h-96C186.768,400,176,389.232,176,376z"/>
<path d="M299.312,328L264,292.688l-48,48V376h35.312L299.312,328z M232,360v-12.688l32-32L276.688,328l-32,32H232z"/>
<g>
</g>
<g>
</g>
<g>
</g>
<g>
</g>
<g>
</g>
<g>
</g>
<g>
</g>
<g>
</g>
<g>
</g>
<g>
</g>
<g>
</g>
<g>
</g>
<g>
</g>
<g>
</g>
<g>
</g>
</svg>
