<svg height="512" viewBox="0 0 52 58" width="512" xmlns="http://www.w3.org/2000/svg"><g id="Page-1" fill="none" fill-rule="evenodd"><g id="013---Email"><path id="Path" d="m50.58 20.25-20.68 18.25-1.67 1.48c-1.2757151 1.1200262-3.1842849 1.1200262-4.46 0l-1.67-1.48-20.68-18.25c.83140964-.804025 1.94341352-1.2524136 3.1-1.25h42.96c1.1565865-.0024136 2.2685904.445975 3.1 1.25z" fill="#f3d55b"/><path id="Path" d="m22.1 38.5-20.68 18.25c-.91030252-.8722066-1.42349486-2.0792928-1.42-3.34v-29.82c-.00349486-1.2607072.50969748-2.4677934 1.42-3.34z" fill="#f0c419"/><path id="Path" d="m52 23.59v29.82c.0034949 1.2607072-.5096975 2.4677934-1.42 3.34l-20.68-18.25 20.68-18.25c.9103025.8722066 1.4234949 2.0792928 1.42 3.34z" fill="#f0c419"/><path id="Path" d="m50.58 56.75c-.8314096.804025-1.9434135 1.2524136-3.1 1.25h-42.96c-1.15658648.0024136-2.26859036-.445975-3.1-1.25l20.68-18.25 1.67 1.48c1.2757151 1.1200262 3.1842849 1.1200262 4.46 0l1.67-1.48z" fill="#f29c1f"/><circle id="Oval" cx="26" cy="16" fill="#e64c3c" r="16"/><path id="Shape" d="m26 4c-6.627417 0-12 5.372583-12 12s5.372583 12 12 12c2.5697843.0093114 5.0734332-.8141281 7.136-2.347.4434846-.3291617.5361617-.9555153.207-1.399-.3291617-.4434846-.9555153-.5361617-1.399-.207-1.7181202 1.2764286-3.803642 1.9616615-5.944 1.953-4.0446224 0-7.6909853-2.4364218-9.2387953-6.1731657s-.6922525-8.0379222 2.1677275-10.89790211c2.8599799-2.85997996 7.1611582-3.71553752 10.8979021-2.16772752 3.7367439 1.54781001 6.1731657 5.19417293 6.1731657 9.23879533v2c0 1.1045695-.8954305 2-2 2s-2-.8954305-2-2v-7c0-.5522847-.4477153-1-1-1s-1 .4477153-1 1v.54c-1.8116436-1.62931482-4.4287139-2.00125801-6.6225745-.9412133-2.1938607 1.0600446-3.528817 3.3415552-3.3781467 5.7734306.1506702 2.4318753 1.7570442 4.5311517 4.0649774 5.3122815 2.3079332.7811297 4.8590763.0889827 6.4557438-1.7514988.8772335 1.5977884 2.7265483 2.3969546 4.4913359 1.9408939 1.7647875-.4560608 2.9953748-2.0511428 2.9886641-3.8738939v-2c-.0071648-6.62444695-5.375553-11.99283515-12-12zm0 16c-2.209139 0-4-1.790861-4-4s1.790861-4 4-4 4 1.790861 4 4-1.790861 4-4 4z" fill="#ecf0f1" fill-rule="nonzero"/></g></g></svg>