<svg id="Capa_1" enable-background="new 0 0 512 512" height="512" viewBox="0 0 512 512" width="512" xmlns="http://www.w3.org/2000/svg"><g><g><path d="m467.12 102.32v40.72c0 8.28-6.72 15-15 15h-357.08c-2.78 0-5.04 2.26-5.04 5.04v263.71c0 8.28-6.72 15-15 15h-39.96c-19.32 0-35.04-15.72-35.04-35.04v-362.5c0-19.32 15.72-35.04 35.04-35.04h163.59c13.53 0 25.99 7.92 31.73 20.17l16.4 35c.82 1.76 2.61 2.9 4.56 2.9h180.76c19.32 0 35.04 15.72 35.04 35.04z" fill="#fabe2c"/></g><path d="m467.12 102.32v40.72c0 8.28-6.72 15-15 15h-166.12v-90.76h146.08c19.32 0 35.04 15.72 35.04 35.04z" fill="#ff9100"/><g><path d="m512 163.08v304.67c0 19.32-15.72 35.04-35.04 35.04h-381.92c-19.32 0-35.04-15.72-35.04-35.04v-304.67c0-19.32 15.72-35.04 35.04-35.04h381.92c19.32 0 35.04 15.72 35.04 35.04z" fill="#ffe14d"/></g><path d="m512 163.08v304.67c0 19.32-15.72 35.04-35.04 35.04h-190.96v-374.75h190.96c19.32 0 35.04 15.72 35.04 35.04z" fill="#fabe2c"/><path d="m368.1 305.9-71.49 71.5c-.07.07-.13.13-.2.19-2.429 2.439-6.259 4.2-10.41 4.2v-193.75c8.28 0 15 6.72 15 15v127.53l45.89-45.88c5.86-5.86 15.35-5.86 21.21 0s5.86 15.35 0 21.21z" fill="#fabe2c"/><g><path d="m408.14 393.91v33.88c0 8.28-6.71 15-15 15h-214.28c-8.29 0-15-6.72-15-15v-33.88c0-8.29 6.71-15 15-15 8.28 0 15 6.71 15 15v18.88h184.28v-18.88c0-8.29 6.72-15 15-15 8.29 0 15 6.71 15 15z" fill="#f0f7ff"/></g><path d="m368.1 284.69c-5.86-5.86-15.35-5.86-21.21 0l-45.89 45.88v-127.53c0-8.28-6.72-15-15-15s-15 6.72-15 15v127.54l-45.89-45.89c-5.86-5.86-15.35-5.86-21.21 0s-5.86 15.35 0 21.21l71.49 71.5c5.913 5.914 15.501 5.732 21.02.19.07-.06.13-.12.2-.19l71.49-71.5c5.86-5.86 5.86-15.35 0-21.21z" fill="#f0f7ff"/><g fill="#dfe7f4"><path d="m408.14 393.91v33.88c0 8.28-6.71 15-15 15h-107.14v-30h92.14v-18.88c0-8.29 6.72-15 15-15 8.29 0 15 6.71 15 15z"/><path d="m368.1 305.9-71.49 71.5c-.07.07-.13.13-.2.19-2.429 2.439-6.259 4.2-10.41 4.2v-193.75c8.28 0 15 6.72 15 15v127.53l45.89-45.88c5.86-5.86 15.35-5.86 21.21 0s5.86 15.35 0 21.21z"/></g></g></svg>