<svg height="462pt" viewBox="-28 0 462 462.00036" width="462pt" xmlns="http://www.w3.org/2000/svg"><path d="m329.460938 427.910156c1.835937-.003906 3.324218-1.5 3.320312-3.335937-.003906-1.839844-1.496094-3.324219-3.335938-3.324219-1.835937 0-3.324218 1.492188-3.324218 3.328125 0 .886719.351562 1.734375.976562 2.359375.628906.625 1.476563.976562 2.363282.972656zm0-111.910156c38.703124-.027344 70.09375 31.332031 70.105468 70.035156.007813 38.703125-31.367187 70.082032-70.070312 70.070313-38.703125-.007813-70.066406-31.402344-70.035156-70.105469.003906-38.660156 31.339843-69.996094 70-70zm0 0" fill="#e48e66"/><path d="m138.980469 288.691406c3.132812 0 5.675781-2.539062 5.679687-5.671875.003906-3.132812-2.535156-5.675781-5.671875-5.679687-3.132812-.003906-5.675781 2.535156-5.679687 5.671875.003906 3.128906 2.539062 5.671875 5.671875 5.679687zm-57.492188 0c3.136719-.003906 5.671875-2.546875 5.671875-5.679687 0-3.132813-2.539062-5.671875-5.671875-5.671875-3.132812 0-5.675781 2.539062-5.679687 5.671875 0 3.136719 2.542968 5.679687 5.679687 5.679687zm114.992188 0c3.132812-.003906 5.671875-2.546875 5.667969-5.679687 0-3.132813-2.539063-5.671875-5.671876-5.671875-3.132812 0-5.671874 2.539062-5.675781 5.671875 0 3.136719 2.542969 5.679687 5.679688 5.679687zm57.488281 0c3.136719 0 5.679688-2.539062 5.679688-5.671875.003906-3.132812-2.535157-5.675781-5.667969-5.679687-3.132813-.003906-5.675781 2.535156-5.679688 5.671875.003907 3.128906 2.539063 5.667969 5.667969 5.679687zm55.492188-130.671875c11.042968.003907 19.996093 8.957031 20 20v137.980469c-22.101563.015625-42.898438 10.460938-56.109376 28.179688-13.210937 17.71875-17.285156 40.632812-10.992187 61.820312h-236.359375c-11.046875 0-20-8.953125-20-20v-207.980469c.003906-11.042969 8.957031-19.996093 20-20zm0 0" fill="#f8ec7d"/><path d="m275.550781 156.941406v1.078125h-21.570312v-87.328125c-.023438-23.808594-19.3125-43.101562-43.121094-43.132812h-26.960937v-21.558594h26.960937c35.726563 0 64.6875 28.964844 64.691406 64.691406zm0 0" fill="#e48e66"/><path d="m151.558594 6h32.339844v21.558594h-32.339844zm0 0" fill="#cc7350"/><path d="m81.480469 156.941406v1.078125h-21.570313v-87.328125c0-35.726562 28.964844-64.691406 64.691406-64.691406h26.957032v21.558594h-26.957032c-23.808593.03125-43.097656 19.324218-43.121093 43.132812zm0 0" fill="#e48e66"/><g fill="#63316d"><path d="m210.859375 0h-86.257813c-39.023437.0429688-70.648437 31.667969-70.691406 70.691406v81.328125h-27.910156c-14.351562.015625-25.984375 11.648438-26 26v207.980469c.015625 14.351562 11.648438 25.984375 26 26h232.046875c5.046875 13.746094 13.921875 25.765625 25.578125 34.628906 13.175781 10.019532 29.28125 15.421875 45.835938 15.371094 40.800781 0 74.320312-32.21875 75.933593-72.988281 1.609375-40.765625-29.261719-75.53125-69.933593-78.753907v-132.238281c-.015626-14.351562-11.648438-25.984375-26-26h-27.910157v-81.328125c-.042969-39.023437-31.667969-70.6484372-70.691406-70.691406zm58.691406 70.691406v81.328125h-9.570312v-81.328125c-.027344-27.121094-22.003907-49.097656-49.121094-49.132812h-20.960937v-9.558594h20.960937c32.398437.035156 58.65625 26.292969 58.691406 58.691406zm-111.992187-49.132812v-9.558594h20.339844v9.558594zm53.300781 12c20.496094.027344 37.101563 16.636718 37.121094 37.132812v81.328125h-160.5v-81.328125c.019531-20.496094 16.625-37.105468 37.121093-37.132812zm-144.949219 37.132812c.035156-32.398437 26.292969-58.65625 58.691406-58.691406h20.957032v9.558594h-20.957032c-27.121093.035156-49.09375 22.011718-49.121093 49.132812v81.328125h-9.570313zm327.550782 315.308594c0 35.347656-28.65625 64-64 64-35.347657 0-64-28.652344-64-64s28.652343-64 64-64c35.328124.039062 63.960937 28.671875 64 64zm-70-207.980469v132.238281c-21.488282 1.710938-41.238282 12.457032-54.339844 29.570313-13.101563 17.113281-18.324219 38.984375-14.367188 60.171875h-228.753906c-7.726562-.007812-13.992188-6.269531-14-14v-207.980469c.007812-7.726562 6.273438-13.992187 14-14h283.460938c7.726562.007813 13.992187 6.273438 14 14zm0 0"/><path d="m138.980469 294.691406c6.449219 0 11.675781-5.222656 11.679687-11.671875s-5.222656-11.675781-11.671875-11.679687c-6.445312-.003906-11.675781 5.222656-11.679687 11.671875.007812 6.441406 5.226562 11.664062 11.671875 11.679687zm0-12c.085937-.003906.167969.027344.230469.089844.0625.058594.097656.140625.097656.230469 0 .179687-.144532.324219-.324219.324219s-.324219-.144532-.324219-.324219c0-.085938.03125-.167969.09375-.230469.058594-.058594.140625-.09375.226563-.089844zm0 0"/><path d="m196.480469 294.691406c6.445312-.003906 11.671875-5.230468 11.667969-11.679687 0-6.445313-5.226563-11.671875-11.671876-11.671875-6.445312 0-11.671874 5.222656-11.675781 11.671875.003907 6.445312 5.230469 11.675781 11.679688 11.679687zm0-12c.085937-.003906.167969.03125.226562.089844.058594.0625.09375.144531.09375.230469 0 .179687-.144531.324219-.324219.324219-.179687 0-.328124-.144532-.328124-.324219.003906-.089844.039062-.171875.097656-.230469.0625-.0625.148437-.09375.234375-.089844zm0 0"/><path d="m253.96875 294.691406c6.449219 0 11.679688-5.222656 11.679688-11.671875.003906-6.449219-5.21875-11.675781-11.667969-11.679687s-11.675781 5.222656-11.679688 11.671875c.007813 6.441406 5.226563 11.664062 11.667969 11.679687zm0-12c.085938-.003906.171875.027344.234375.089844.0625.058594.097656.140625.097656.230469 0 .085937-.035156.171875-.097656.234375-.0625.058594-.144531.09375-.234375.09375-.085938 0-.167969-.035156-.226562-.097656-.0625-.0625-.09375-.144532-.09375-.230469 0-.085938.03125-.167969.09375-.230469.058593-.058594.140624-.09375.226562-.089844zm0 0"/><path d="m81.488281 294.691406c6.449219-.003906 11.671875-5.230468 11.671875-11.679687 0-6.445313-5.226562-11.671875-11.671875-11.671875-6.449219 0-11.675781 5.222656-11.679687 11.671875.007812 6.445312 5.234375 11.675781 11.679687 11.679687zm0-12c.085938-.003906.167969.03125.230469.089844.058594.0625.09375.144531.089844.230469.003906.085937-.027344.167969-.089844.230469-.058594.0625-.140625.097656-.230469.097656-.085937 0-.171875-.035156-.230469-.09375-.0625-.0625-.097656-.148438-.097656-.234375 0-.089844.035156-.171875.097656-.230469.0625-.0625.144532-.09375.230469-.089844zm0 0"/><path d="m303.460938 364.089844c0 3.3125 2.683593 6 6 6 3.3125 0 6-2.6875 6-6-.003907-3.886719 1.613281-7.601563 4.457031-10.25 2.847656-2.648438 6.664062-3.992188 10.542969-3.714844 6.132812.4375 11.261718 4.828125 12.644531 10.820312 1.378906 5.992188-1.308594 12.183594-6.632813 15.261719-8.113281 4.808594-13.070312 13.5625-13.011718 22.992188v8.679687c0 3.316406 2.683593 6 6 6 3.3125 0 6-2.683594 6-6v-8.679687c-.0625-5.152344 2.613281-9.953125 7.03125-12.609375 10.914062-6.324219 15.714843-19.566406 11.390624-31.414063-4.324218-11.847656-16.527343-18.882812-28.949218-16.6875-12.417969 2.195313-21.472656 12.988281-21.472656 25.601563zm0 0"/><path d="m329.460938 415.25c-5.152344 0-9.332032 4.175781-9.332032 9.328125 0 5.15625 4.179688 9.332031 9.332032 9.332031 5.152343 0 9.328124-4.175781 9.328124-9.332031-.007812-5.148437-4.179687-9.320313-9.328124-9.328125zm0 12c-1.082032.003906-2.058594-.644531-2.476563-1.640625-.414063-.996094-.1875-2.148437.574219-2.914063.761718-.765624 1.910156-.996093 2.910156-.582031 1 .410157 1.652344 1.386719 1.652344 2.464844-.003906 1.472656-1.191406 2.664063-2.660156 2.671875zm0 0"/></g></svg>