<?xml version="1.0" encoding="iso-8859-1"?>
<!-- Generator: Adobe Illustrator 19.0.0, SVG Export Plug-In . SVG Version: 6.00 Build 0)  -->
<svg version="1.1" id="Capa_1" xmlns="http://www.w3.org/2000/svg" xmlns:xlink="http://www.w3.org/1999/xlink" x="0px" y="0px"
	 viewBox="0 0 416 416" style="enable-background:new 0 0 416 416;" xml:space="preserve">
<path style="fill:#FFDC69;" d="M320,8H120c-17.672,0-32,14.328-32,32v8H40C22.328,48,8,62.328,8,80v40c0,17.672,14.328,32,32,32h48
	v56v104v32c0,17.68,14.32,32,32,32h24h24c0,17.672,14.328,32,32,32h96c17.672,0,32-14.328,32-32h24h24c17.672,0,32-14.328,32-32V96
	v-8L328,8H320z M280,80c0-17.672-14.328-32-32-32C265.68,48,280,62.32,280,80z M280,120c0,17.68-14.32,32-32,32
	C265.672,152,280,137.672,280,120z"/>
<path style="fill:#FFB855;" d="M328,8h-8v56c0,17.672,14.328,32,32,32h56v-8L328,8z"/>
<path style="fill:#FF8C5A;" d="M280,80v40c0,17.672-14.328,32-32,32H40c-17.672,0-32-14.328-32-32V80c0-17.672,14.328-32,32-32h208
	C265.672,48,280,62.328,280,80z"/>
<path style="fill:#FEEC9F;" d="M296,408h-96c-17.672,0-32-14.328-32-32v-80c0-17.672,14.328-32,32-32h96c17.672,0,32,14.328,32,32
	v80C328,393.672,313.672,408,296,408z"/>
<path d="M75.536,128.12c12.488,0,18.312-8.992,18.312-19.816V73.008H79.536v34.136c0,6.832-2.168,8.664-6,8.664
	c-2.328,0-4.992-1.664-6.832-5.168l-9.656,7.24C61.056,124.792,66.712,128.12,75.536,128.12z"/>
<path d="M119.8,109.976h6.664c11.32,0,21.648-5.744,21.648-18.984c0-13.656-9.992-17.984-21.648-17.984h-20.976v54.112H119.8
	V109.976z M119.8,84.328h6c5.328,0,8.32,1.832,8.32,6.664s-2.664,7.664-8.32,7.664h-6L119.8,84.328L119.8,84.328z"/>
<path d="M181.536,128.12c7.664,0,14.656-3.336,18.648-6.664V95.648h-20.64v11.656h7.992v7.496c-1,0.664-2.664,1-4.168,1
	c-9.656,0-14.16-5.664-14.16-15.824c0-9.824,5.496-15.656,12.824-15.656c4.328,0,6.664,1.336,9.328,3.664l7.824-8.824
	c-3.832-3.832-9.656-7.16-17.312-7.16c-14.824,0-27.304,10.328-27.304,28.472C154.568,118.96,166.72,128.12,181.536,128.12z"/>
<rect x="32" y="112" width="16" height="16"/>
<path d="M333.656,2.344C332.16,0.84,330.128,0,328,0h-8H120C97.944,0,80,17.944,80,40H40C17.944,40,0,57.944,0,80v40
	c0,22.056,17.944,40,40,40h40v184c0,22.056,17.944,40,40,40h24c4.424,0,8-3.584,8-8s-3.576-8-8-8h-24c-13.232,0-24-10.768-24-24V160
	h152c22.056,0,40-17.944,40-40V80c0-22.056-17.944-40-40-40H96c0-13.232,10.768-24,24-24h192v48c0,22.056,17.944,40,40,40h48v240
	c0,13.232-10.768,24-24,24h-24c-4.424,0-8,3.584-8,8s3.576,8,8,8h24c22.056,0,40-17.944,40-40V96v-8c0-2.12-0.84-4.16-2.344-5.656
	L333.656,2.344z M248,56c13.232,0,24,10.768,24,24v40c0,13.232-10.768,24-24,24H40c-13.232,0-24-10.768-24-24V80
	c0-13.232,10.768-24,24-24H248z M352,88c-13.232,0-24-10.768-24-24V19.312L396.688,88H352z"/>
<path d="M296,416c22.056,0,40-17.944,40-40v-80c0-22.056-17.944-40-40-40h-96c-22.056,0-40,17.944-40,40v80
	c0,22.056,17.944,40,40,40H296z M176,376v-80c0-13.232,10.768-24,24-24h96c13.232,0,24,10.768,24,24v80c0,13.232-10.768,24-24,24
	h-96C186.768,400,176,389.232,176,376z"/>
<polygon points="224,312 240,312 240,296 208,296 208,328 224,328 "/>
<polygon points="240,360 224,360 224,344 208,344 208,376 240,376 "/>
<polygon points="272,328 288,328 288,296 256,296 256,312 272,312 "/>
<polygon points="288,344 272,344 272,360 256,360 256,376 288,376 "/>
<g>
</g>
<g>
</g>
<g>
</g>
<g>
</g>
<g>
</g>
<g>
</g>
<g>
</g>
<g>
</g>
<g>
</g>
<g>
</g>
<g>
</g>
<g>
</g>
<g>
</g>
<g>
</g>
<g>
</g>
</svg>
