<?xml version="1.0" encoding="iso-8859-1"?>
<!-- Generator: Adobe Illustrator 19.0.0, SVG Export Plug-In . SVG Version: 6.00 Build 0)  -->
<svg version="1.1" id="Capa_1" xmlns="http://www.w3.org/2000/svg" xmlns:xlink="http://www.w3.org/1999/xlink" x="0px" y="0px"
	 viewBox="0 0 400 400" style="enable-background:new 0 0 400 400;" xml:space="preserve">
<path style="fill:#FFDC69;" d="M312,0H112C94.328,0,80,14.328,80,32v8H32C14.328,40,0,54.328,0,72v40c0,17.672,14.328,32,32,32h48
	v56v104v32c0,17.68,14.32,32,32,32h24h24c0,17.672,14.328,32,32,32h96c17.672,0,32-14.328,32-32h24h24c17.672,0,32-14.328,32-32V88
	v-8L320,0H312z M272,72c0-17.672-14.328-32-32-32C257.68,40,272,54.32,272,72z M272,112c0,17.68-14.32,32-32,32
	C257.672,144,272,129.672,272,112z"/>
<path style="fill:#FF8C5A;" d="M272,72v40c0,17.672-14.328,32-32,32H32c-17.672,0-32-14.328-32-32V72c0-17.672,14.328-32,32-32h208
	C257.672,40,272,54.328,272,72z"/>
<path style="fill:#FEEC9F;" d="M288,400h-96c-17.672,0-32-14.328-32-32v-80c0-17.672,14.328-32,32-32h96c17.672,0,32,14.328,32,32
	v80C320,385.672,305.672,400,288,400z"/>
<polygon style="fill:#FFFFFF;" points="240,360 216,360 216,336 256,296 280,320 "/>
<path style="fill:#FFB855;" d="M320,0h-8v56c0,17.672,14.328,32,32,32h56v-8L320,0z"/>
<g>
	<rect x="24" y="104" style="fill:#FFFFFF;" width="16" height="16"/>
	<path style="fill:#FFFFFF;" d="M75.192,64.168H53.368v55.808h16v-17.16h5.824c10.368,0,22.488-5.192,22.488-19.832
		C97.68,70.672,89.904,64.168,75.192,64.168z M69.376,77.168h5.16c5.248,0,7.488,1.736,7.488,5.816c0,4.528-2.52,6.824-7.488,6.824
		h-5.16C69.376,89.808,69.376,77.168,69.376,77.168z"/>
	<path style="fill:#FFFFFF;" d="M150.264,91.816c0-18.088-9.904-27.648-28.648-27.648H104.8v55.808h17.656
		C140.128,119.968,150.264,109.704,150.264,91.816z M120.792,106.792V77.344c6.832,0,13.144,1.76,13.144,14.472
		C133.936,105.088,126.912,106.792,120.792,106.792z"/>
	<polygon style="fill:#FFFFFF;" points="195.184,77.84 195.184,64.168 158.208,64.168 158.208,119.968 174.208,119.968 
		174.208,100.16 192.192,100.16 192.192,86.48 174.208,86.48 174.208,77.84 	"/>
</g>
<g>
</g>
<g>
</g>
<g>
</g>
<g>
</g>
<g>
</g>
<g>
</g>
<g>
</g>
<g>
</g>
<g>
</g>
<g>
</g>
<g>
</g>
<g>
</g>
<g>
</g>
<g>
</g>
<g>
</g>
</svg>
