<?xml version="1.0" encoding="iso-8859-1"?>
<!-- Generator: Adobe Illustrator 19.0.0, SVG Export Plug-In . SVG Version: 6.00 Build 0)  -->
<svg version="1.1" id="Capa_1" xmlns="http://www.w3.org/2000/svg" xmlns:xlink="http://www.w3.org/1999/xlink" x="0px" y="0px"
	 viewBox="0 0 416 416" style="enable-background:new 0 0 416 416;" xml:space="preserve">
<path style="fill:#FFDC69;" d="M320,8H120c-17.672,0-32,14.328-32,32v8H40C22.328,48,8,62.328,8,80v40c0,17.672,14.328,32,32,32h48
	v56v104v32c0,17.68,14.32,32,32,32h24h24c0,17.672,14.328,32,32,32h96c17.672,0,32-14.328,32-32h24h24c17.672,0,32-14.328,32-32V96
	v-8L328,8H320z M280,80c0-17.672-14.328-32-32-32C265.68,48,280,62.32,280,80z M280,120c0,17.68-14.32,32-32,32
	C265.672,152,280,137.672,280,120z"/>
<path style="fill:#FFB855;" d="M328,8h-8v56c0,17.672,14.328,32,32,32h56v-8L328,8z"/>
<path style="fill:#FF8C5A;" d="M280,80v40c0,17.672-14.328,32-32,32H40c-17.672,0-32-14.328-32-32V80c0-17.672,14.328-32,32-32h208
	C265.672,48,280,62.328,280,80z"/>
<path style="fill:#FEEC9F;" d="M296,408h-96c-17.672,0-32-14.328-32-32v-80c0-17.672,14.328-32,32-32h96c17.672,0,32,14.328,32,32
	v80C328,393.672,313.672,408,296,408z"/>
<path d="M76.536,109.968H83.2c11.328,0,21.648-5.744,21.648-18.984c0-13.648-9.992-17.976-21.648-17.976H62.216v54.12h14.32
	C76.536,127.128,76.536,109.968,76.536,109.968z M76.536,84.328h6c5.328,0,8.328,1.832,8.328,6.656s-2.664,7.664-8.328,7.664h-6
	C76.536,98.648,76.536,84.328,76.536,84.328z"/>
<path d="M127.288,111.472c0-6.656-1.168-14.488-1.832-20.64h0.336l5.16,12.064l11.992,24.232h14.648v-54.12h-13.656v15.648
	c0,6.664,1.168,14.824,1.832,20.648h-0.328l-5.16-12.152L128.288,73H113.64v54.12h13.656v-15.648H127.288z"/>
<path d="M194.184,128.128c7.664,0,14.656-3.336,18.648-6.664V95.656h-20.648v11.656h7.992v7.488c-1,0.672-2.664,1-4.168,1
	c-9.656,0-14.152-5.656-14.152-15.816c0-9.832,5.496-15.656,12.824-15.656c4.328,0,6.664,1.328,9.328,3.664l7.824-8.824
	C208,75.336,202.176,72,194.512,72c-14.816,0-27.304,10.32-27.304,28.48C167.216,118.96,179.368,128.128,194.184,128.128z"/>
<rect x="32" y="112" width="16" height="16"/>
<path d="M333.656,2.344C332.16,0.84,330.12,0,328,0h-8H120C97.944,0,80,17.944,80,40H40C17.944,40,0,57.944,0,80v40
	c0,22.056,17.944,40,40,40h40v184c0,22.056,17.944,40,40,40h24c4.416,0,8-3.576,8-8s-3.584-8-8-8h-24c-13.232,0-24-10.768-24-24V160
	h152c22.056,0,40-17.944,40-40V80c0-22.056-17.944-40-40-40H96c0-13.232,10.768-24,24-24h192v48c0,22.056,17.944,40,40,40h48v240
	c0,13.232-10.768,24-24,24h-24c-4.416,0-8,3.576-8,8s3.584,8,8,8h24c22.056,0,40-17.944,40-40V96v-8c0-2.128-0.84-4.16-2.344-5.656
	L333.656,2.344z M248,56c13.232,0,24,10.768,24,24v40c0,13.232-10.768,24-24,24H40c-13.232,0-24-10.768-24-24V80
	c0-13.232,10.768-24,24-24H248z M352,88c-13.232,0-24-10.768-24-24V19.312L396.688,88H352z"/>
<path d="M296,416c22.056,0,40-17.944,40-40v-80c0-22.056-17.944-40-40-40h-96c-22.056,0-40,17.944-40,40v80
	c0,22.056,17.944,40,40,40H296z M176,376v-80c0-13.232,10.768-24,24-24h96c13.232,0,24,10.768,24,24v80c0,13.232-10.768,24-24,24
	h-96C186.768,400,176,389.232,176,376z"/>
<polygon points="224,312 240,312 240,296 208,296 208,328 224,328 "/>
<polygon points="240,360 224,360 224,344 208,344 208,376 240,376 "/>
<polygon points="272,328 288,328 288,296 256,296 256,312 272,312 "/>
<polygon points="288,344 272,344 272,360 256,360 256,376 288,376 "/>
<g>
</g>
<g>
</g>
<g>
</g>
<g>
</g>
<g>
</g>
<g>
</g>
<g>
</g>
<g>
</g>
<g>
</g>
<g>
</g>
<g>
</g>
<g>
</g>
<g>
</g>
<g>
</g>
<g>
</g>
</svg>
