<?xml version="1.0" encoding="iso-8859-1"?>
<!-- Generator: Adobe Illustrator 19.0.0, SVG Export Plug-In . SVG Version: 6.00 Build 0)  -->
<svg version="1.1" id="Capa_1" xmlns="http://www.w3.org/2000/svg" xmlns:xlink="http://www.w3.org/1999/xlink" x="0px" y="0px"
	 viewBox="0 0 416 416" style="enable-background:new 0 0 416 416;" xml:space="preserve">
<path style="fill:#FFDC69;" d="M320,8H120c-17.672,0-32,14.328-32,32v8H40C22.328,48,8,62.328,8,80v40c0,17.672,14.328,32,32,32h48
	v56v104v32c0,17.68,14.32,32,32,32h24h24c0,17.672,14.328,32,32,32h96c17.672,0,32-14.328,32-32h24h24c17.672,0,32-14.328,32-32V96
	v-8L328,8H320z M280,80c0-17.672-14.328-32-32-32C265.68,48,280,62.32,280,80z M280,120c0,17.68-14.32,32-32,32
	C265.672,152,280,137.672,280,120z"/>
<path style="fill:#FFB855;" d="M328,8h-8v56c0,17.672,14.328,32,32,32h56v-8L328,8z"/>
<path style="fill:#FF8C5A;" d="M280,80v40c0,17.672-14.328,32-32,32H40c-17.672,0-32-14.328-32-32V80c0-17.672,14.328-32,32-32h208
	C265.672,48,280,62.328,280,80z"/>
<path style="fill:#FEEC9F;" d="M296,408h-96c-17.672,0-32-14.328-32-32v-80c0-17.672,14.328-32,32-32h96c17.672,0,32,14.328,32,32
	v80C328,393.672,313.672,408,296,408z"/>
<polygon style="fill:#FFFFFF;" points="248,368 224,368 224,344 264,304 288,328 "/>
<polygon points="72.536,127.128 86.856,127.128 86.856,85 101.176,85 101.176,73.008 58.224,73.008 58.224,85 72.536,85 "/>
<path d="M117.64,127.128l3.992-9.656c1.168-2.832,2.328-5.672,3.504-9h0.328c1.336,3.328,2.504,6.168,3.832,9l4.336,9.656h15.984
	L134.96,99.984l13.824-26.976h-15.32l-3.168,8.824c-1,2.504-2.168,5.504-3.328,9h-0.336c-1.496-3.504-2.664-6.504-3.832-9
	l-3.664-8.824h-15.984l13.824,26.304l-14.648,27.816H117.64z"/>
<polygon points="165.064,127.128 179.384,127.128 179.384,85 193.704,85 193.704,73.008 150.744,73.008 150.744,85 165.064,85 "/>
<rect x="32" y="112" width="16" height="16"/>
<path d="M333.656,2.344C332.16,0.84,330.128,0,328,0h-8H120C97.944,0,80,17.944,80,40H40C17.944,40,0,57.944,0,80v40
	c0,22.056,17.944,40,40,40h40v184c0,22.056,17.944,40,40,40h24c4.424,0,8-3.576,8-8s-3.576-8-8-8h-24c-13.232,0-24-10.768-24-24V160
	h152c22.056,0,40-17.944,40-40V80c0-22.056-17.944-40-40-40H96c0-13.232,10.768-24,24-24h192v48c0,22.056,17.944,40,40,40h48v240
	c0,13.232-10.768,24-24,24h-24c-4.424,0-8,3.576-8,8s3.576,8,8,8h24c22.056,0,40-17.944,40-40V96v-8c0-2.128-0.84-4.16-2.344-5.656
	L333.656,2.344z M248,56c13.232,0,24,10.768,24,24v40c0,13.232-10.768,24-24,24H40c-13.232,0-24-10.768-24-24V80
	c0-13.232,10.768-24,24-24H248z M352,88c-13.232,0-24-10.768-24-24V19.312L396.688,88H352z"/>
<path d="M296,416c22.056,0,40-17.944,40-40v-80c0-22.056-17.944-40-40-40h-96c-22.056,0-40,17.944-40,40v80
	c0,22.056,17.944,40,40,40H296z M176,376v-80c0-13.232,10.768-24,24-24h96c13.232,0,24,10.768,24,24v80c0,13.232-10.768,24-24,24
	h-96C186.768,400,176,389.232,176,376z"/>
<path d="M299.312,328L264,292.688l-48,48V376h35.312L299.312,328z M232,360v-12.688l32-32L276.688,328l-32,32H232z"/>
<g>
</g>
<g>
</g>
<g>
</g>
<g>
</g>
<g>
</g>
<g>
</g>
<g>
</g>
<g>
</g>
<g>
</g>
<g>
</g>
<g>
</g>
<g>
</g>
<g>
</g>
<g>
</g>
<g>
</g>
</svg>
