<?xml version="1.0" encoding="iso-8859-1"?>
<!-- Generator: Adobe Illustrator 19.0.0, SVG Export Plug-In . SVG Version: 6.00 Build 0)  -->
<svg version="1.1" id="Capa_1" xmlns="http://www.w3.org/2000/svg" xmlns:xlink="http://www.w3.org/1999/xlink" x="0px" y="0px"
	 viewBox="0 0 416 416" style="enable-background:new 0 0 416 416;" xml:space="preserve">
<path style="fill:#FFDC69;" d="M320,8H120c-17.672,0-32,14.328-32,32v8H40C22.328,48,8,62.328,8,80v40c0,17.672,14.328,32,32,32h48
	v56v104v32c0,17.68,14.32,32,32,32h24h24c0,17.672,14.328,32,32,32h96c17.672,0,32-14.328,32-32h24h24c17.672,0,32-14.328,32-32V96
	v-8L328,8H320z M280,80c0-17.672-14.328-32-32-32C265.68,48,280,62.32,280,80z M280,120c0,17.68-14.32,32-32,32
	C265.672,152,280,137.672,280,120z"/>
<path style="fill:#FFB855;" d="M328,8h-8v56c0,17.672,14.328,32,32,32h56v-8L328,8z"/>
<path style="fill:#FF8C5A;" d="M280,80v40c0,17.672-14.328,32-32,32H40c-17.672,0-32-14.328-32-32V80c0-17.672,14.328-32,32-32h208
	C265.672,48,280,62.328,280,80z"/>
<path style="fill:#FEEC9F;" d="M296,408h-96c-17.672,0-32-14.328-32-32v-80c0-17.672,14.328-32,32-32h96c17.672,0,32,14.328,32,32
	v80C328,393.672,313.672,408,296,408z"/>
<polygon style="fill:#FFFFFF;" points="248,368 224,368 224,344 264,304 288,328 "/>
<path d="M72.376,127.128l4-9.656c1.168-2.832,2.328-5.672,3.496-9h0.336c1.336,3.328,2.496,6.168,3.832,9l4.336,9.656h15.984
	L89.704,99.984l13.824-26.976h-15.32l-3.168,8.824c-1,2.504-2.168,5.504-3.328,9H81.36c-1.496-3.504-2.664-6.504-3.832-9
	l-3.664-8.824H57.88l13.824,26.304l-14.656,27.816H72.376z"/>
<polygon points="145.936,115.136 125.456,115.136 125.456,73.008 111.136,73.008 111.136,127.128 145.936,127.128 "/>
<path d="M170.216,115.8c-4,0-8.824-2.168-12.656-5.24l-8.16,9.824c5.832,5.248,13.656,7.752,20.48,7.752
	c13.488,0,21.144-8.168,21.144-17.32c0-7.496-3.832-12.16-10.568-14.824l-6.576-2.576c-4.912-1.92-7.992-2.832-7.992-5.416
	c0-2.416,2.168-3.664,5.664-3.664c4,0,7.16,1.328,10.824,3.912l7.16-8.992c-5-4.904-11.824-7.24-17.984-7.24
	c-11.824,0-20.152,7.576-20.152,16.824c0,7.832,5.08,12.736,10.904,15.064l6.744,2.832c4.576,1.832,7.328,2.672,7.328,5.248
	C176.376,114.384,174.544,115.8,170.216,115.8z"/>
<rect x="32" y="112" width="16" height="16"/>
<path d="M333.656,2.344C332.16,0.84,330.12,0,328,0h-8H120C97.944,0,80,17.944,80,40H40C17.944,40,0,57.944,0,80v40
	c0,22.056,17.944,40,40,40h40v184c0,22.056,17.944,40,40,40h24c4.416,0,8-3.576,8-8s-3.584-8-8-8h-24c-13.232,0-24-10.768-24-24V160
	h152c22.056,0,40-17.944,40-40V80c0-22.056-17.944-40-40-40H96c0-13.232,10.768-24,24-24h192v48c0,22.056,17.944,40,40,40h48v240
	c0,13.232-10.768,24-24,24h-24c-4.416,0-8,3.576-8,8s3.584,8,8,8h24c22.056,0,40-17.944,40-40V96v-8c0-2.128-0.84-4.16-2.344-5.656
	L333.656,2.344z M248,56c13.232,0,24,10.768,24,24v40c0,13.232-10.768,24-24,24H40c-13.232,0-24-10.768-24-24V80
	c0-13.232,10.768-24,24-24H248z M352,88c-13.232,0-24-10.768-24-24V19.312L396.688,88H352z"/>
<path d="M296,416c22.056,0,40-17.944,40-40v-80c0-22.056-17.944-40-40-40h-96c-22.056,0-40,17.944-40,40v80
	c0,22.056,17.944,40,40,40H296z M176,376v-80c0-13.232,10.768-24,24-24h96c13.232,0,24,10.768,24,24v80c0,13.232-10.768,24-24,24
	h-96C186.768,400,176,389.232,176,376z"/>
<path d="M299.312,328L264,292.688l-48,48V376h35.312L299.312,328z M232,360v-12.688l32-32L276.688,328l-32,32H232z"/>
<g>
</g>
<g>
</g>
<g>
</g>
<g>
</g>
<g>
</g>
<g>
</g>
<g>
</g>
<g>
</g>
<g>
</g>
<g>
</g>
<g>
</g>
<g>
</g>
<g>
</g>
<g>
</g>
<g>
</g>
</svg>
